<?xml version="1.0" standalone="no"?>
<!DOCTYPE svg PUBLIC "-//W3C//DTD SVG 20010904//EN"
 "http://www.w3.org/TR/2001/REC-SVG-20010904/DTD/svg10.dtd">
<svg version="1.0" xmlns="http://www.w3.org/2000/svg"
 width="640.000000pt" height="640.000000pt" viewBox="0 0 640.000000 640.000000"
 preserveAspectRatio="xMidYMid meet">

<g transform="translate(0.000000,640.000000) scale(0.100000,-0.100000)"
fill="#000000" stroke="none">
<path d="M2337 5536 c-60 -16 -115 -60 -147 -117 l-25 -44 -3 -372 -3 -373
-522 0 c-316 0 -548 -4 -587 -11 -117 -18 -200 -88 -220 -183 -8 -36 -10 -553
-8 -1741 l3 -1690 22 -41 c28 -52 95 -111 142 -124 23 -6 553 -10 1467 -10
1616 0 1489 -6 1574 79 86 87 80 5 80 1209 l0 1062 568 0 c549 0 568 1 612 21
55 25 105 71 133 124 l22 40 3 985 c2 690 -1 998 -8 1029 -15 60 -60 114 -118
143 l-47 23 -1445 2 c-1157 1 -1455 -1 -1493 -11z m2883 -209 c-24 -22 -1138
-817 -1145 -817 -3 0 -22 15 -41 34 -76 73 -138 86 -438 86 l-209 0 -416 297
c-229 163 -452 323 -495 355 l-80 58 1419 0 c1191 0 1417 -2 1405 -13z m-2518
-458 c178 -127 325 -233 327 -235 2 -2 -145 -4 -327 -4 l-332 0 0 235 c0 129
2 235 5 235 2 0 150 -104 327 -231z m2546 -954 l-3 -397 -515 407 c-283 224
-516 411 -518 415 -2 5 196 151 440 326 244 174 477 342 518 371 l75 55 3
-390 c1 -215 1 -569 0 -787z m-1370 488 c20 -18 20 -31 24 -713 l3 -695 -580
-428 c-319 -235 -589 -433 -600 -438 -17 -8 -31 -4 -74 25 -115 78 -267 88
-377 27 -33 -18 -69 -42 -80 -53 l-22 -20 -571 449 -571 448 0 697 c0 653 1
698 18 707 11 7 484 10 1413 11 1316 0 1398 -1 1417 -17z m712 -626 c250 -198
464 -368 475 -378 19 -19 8 -19 -468 -19 l-487 0 0 386 c0 302 3 384 12 378 7
-5 217 -170 468 -367z m-3055 -1427 c255 -201 464 -368 464 -371 1 -5 -126
-109 -736 -602 l-233 -188 0 777 c0 775 0 776 20 763 11 -8 229 -178 485 -379z
m2373 -783 l-3 -395 -510 402 c-280 220 -509 404 -510 408 0 4 230 177 510
383 l510 376 3 -390 c1 -214 1 -567 0 -784z m-1372 416 c32 -21 1026 -801
1178 -925 20 -16 -48 -17 -1258 -18 l-1278 0 114 93 c62 50 324 263 581 472
257 209 484 388 505 398 49 23 102 16 158 -20z"/>
</g>
</svg>
